<svg width="542" height="575" viewBox="0 0 542 575" fill="none" xmlns="http://www.w3.org/2000/svg">
<g clip-path="url(#clip0)">
<mask id="mask0" mask-type="alpha" maskUnits="userSpaceOnUse" x="24" y="82" width="493" height="493">
<path d="M270.749 574.314C406.685 574.314 516.883 464.117 516.883 328.18C516.883 192.243 406.685 82.0448 270.749 82.0448C134.812 82.0448 24.6133 192.243 24.6133 328.18C24.6133 464.117 134.812 574.314 270.749 574.314Z" fill="white"/>
</mask>
<g mask="url(#mask0)">
<path d="M270.749 574.314C406.685 574.314 516.883 464.117 516.883 328.18C516.883 192.243 406.685 82.0448 270.749 82.0448C134.812 82.0448 24.6133 192.243 24.6133 328.18C24.6133 464.117 134.812 574.314 270.749 574.314Z" fill="#E6E6E6"/>
<path d="M516.883 82.0448H24.6133V574.314H516.883V82.0448Z" fill="#4758FC"/>
</g>
<mask id="mask1" mask-type="alpha" maskUnits="userSpaceOnUse" x="0" y="0" width="542" height="575">
<path d="M24.6134 328.18C24.6134 464.116 134.812 574.314 270.749 574.314C406.685 574.314 516.883 464.116 516.883 328.18H541.496V0H0V328.18H24.6134Z" fill="white"/>
</mask>
<g mask="url(#mask1)">
<mask id="mask2" mask-type="alpha" maskUnits="userSpaceOnUse" x="65" y="73" width="411" height="502">
<path d="M319.975 370.455V408.173H328.18C409.741 408.173 475.86 474.293 475.86 555.854V574.314H65.6357V555.854C65.6357 474.293 131.755 408.173 213.317 408.173H221.521V370.455C186.166 353.66 160.75 319.333 156.511 278.708C144.564 277.021 135.374 266.752 135.374 254.339V225.623C135.374 213.428 144.244 203.303 155.886 201.351V188.703C155.886 125.266 207.311 73.8404 270.748 73.8404C334.185 73.8404 385.611 125.266 385.611 188.703V201.351C397.252 203.303 406.122 213.428 406.122 225.623V254.339C406.122 266.752 396.932 277.021 384.986 278.708C380.745 319.333 355.331 353.66 319.975 370.455Z" fill="white"/>
</mask>
<g mask="url(#mask2)">
<path d="M319.975 370.455V408.173H328.18C409.741 408.173 475.86 474.293 475.86 555.854V574.314H65.6357V555.854C65.6357 474.293 131.755 408.173 213.317 408.173H221.521V370.455C186.166 353.66 160.75 319.333 156.511 278.708C144.564 277.021 135.374 266.752 135.374 254.339V225.623C135.374 213.428 144.244 203.303 155.886 201.351V188.703C155.886 125.266 207.311 73.8404 270.748 73.8404C334.185 73.8404 385.611 125.266 385.611 188.703V201.351C397.252 203.303 406.122 213.428 406.122 225.623V254.339C406.122 266.752 396.932 277.021 384.986 278.708C380.745 319.333 355.331 353.66 319.975 370.455Z" fill="#D0C6AC"/>
<path d="M541.496 73.8404H0V574.314H541.496V73.8404Z" fill="#FFDBB4"/>
<path fill-rule="evenodd" clip-rule="evenodd" d="M385.612 235.879V283.055C385.612 346.492 334.185 397.918 270.749 397.918C207.311 397.918 155.886 346.492 155.886 283.055V235.879V266.646C155.886 330.082 207.311 381.509 270.749 381.509C334.185 381.509 385.612 330.082 385.612 266.646V235.879Z" fill="black" fill-opacity="0.1"/>
</g>
<mask id="mask3" mask-type="alpha" maskUnits="userSpaceOnUse" x="65" y="375" width="411" height="200">
<path fill-rule="evenodd" clip-rule="evenodd" d="M221.521 375.5C184.767 379.613 156.458 390.845 155.894 419.752C102.856 442.156 65.6357 494.658 65.6357 555.853V574.314H475.86V555.853C475.86 494.658 438.639 442.156 385.603 419.752C385.037 390.845 356.728 379.613 319.975 375.5V414.327C319.975 441.514 297.935 463.554 270.748 463.554C243.56 463.554 221.521 441.514 221.521 414.327V375.5Z" fill="white"/>
</mask>
<g mask="url(#mask3)">
<path fill-rule="evenodd" clip-rule="evenodd" d="M221.521 375.5C184.767 379.613 156.458 390.845 155.894 419.752C102.856 442.156 65.6357 494.658 65.6357 555.853V574.314H475.86V555.853C475.86 494.658 438.639 442.156 385.603 419.752C385.037 390.845 356.728 379.613 319.975 375.5V414.327C319.975 441.514 297.935 463.554 270.748 463.554C243.56 463.554 221.521 441.514 221.521 414.327V375.5Z" fill="#B7C1DB"/>
<path d="M541.496 348.691H0V574.314H541.496V348.691Z" fill="#384A55"/>
<path fill-rule="evenodd" clip-rule="evenodd" d="M211.266 477.376V576.365H196.908V470.015C201.429 472.702 206.233 475.165 211.266 477.376ZM348.691 470.015V552.778C348.691 556.743 345.477 559.957 341.512 559.957C337.547 559.957 334.333 556.743 334.333 552.778V477.376C339.366 475.165 344.17 472.702 348.691 470.015Z" fill="#F4F4F4"/>
<path fill-rule="evenodd" clip-rule="evenodd" d="M186.569 374.791C155.699 380.629 134.348 392.263 134.348 414.958C134.348 455.39 202.113 488.167 270.748 488.167C339.383 488.167 407.147 455.39 407.147 414.958C407.147 392.263 385.796 380.629 354.926 374.791C373.559 381.662 385.611 393.213 385.611 412.434C385.611 454.261 328.546 488.167 270.748 488.167C212.95 488.167 155.886 454.261 155.886 412.434C155.886 393.213 167.936 381.662 186.569 374.791Z" fill="black" fill-opacity="0.16"/>
</g>
<mask id="mask4" mask-type="alpha" maskUnits="userSpaceOnUse" x="230" y="300" width="79" height="40">
<path fill-rule="evenodd" clip-rule="evenodd" d="M230.923 304.413C233.092 323.881 249.605 339.019 269.653 339.019C289.763 339.019 306.315 323.787 308.402 304.232C308.57 302.658 306.812 300.048 304.61 300.048C274.059 300.048 250.655 300.048 234.962 300.048C232.746 300.048 230.705 302.464 230.923 304.413Z" fill="white"/>
</mask>
<g mask="url(#mask4)">
<path fill-rule="evenodd" clip-rule="evenodd" d="M230.923 304.413C233.092 323.881 249.605 339.019 269.653 339.019C289.763 339.019 306.315 323.787 308.402 304.232C308.57 302.658 306.812 300.048 304.61 300.048C274.059 300.048 250.655 300.048 234.962 300.048C232.746 300.048 230.705 302.464 230.923 304.413Z" fill="black" fill-opacity="0.7"/>
<path d="M292.214 277.485H249.141C243.477 277.485 238.885 282.076 238.885 287.74V300.048C238.885 305.711 243.477 310.303 249.141 310.303H292.214C297.88 310.303 302.471 305.711 302.471 300.048V287.74C302.471 282.076 297.88 277.485 292.214 277.485Z" fill="white"/>
<path d="M259.396 367.734C271.858 367.734 281.959 357.633 281.959 345.172C281.959 332.712 271.858 322.61 259.396 322.61C246.936 322.61 236.835 332.712 236.835 345.172C236.835 357.633 246.936 367.734 259.396 367.734Z" fill="#FF4F6D"/>
<path d="M279.908 367.734C292.368 367.734 302.471 357.633 302.471 345.172C302.471 332.712 292.368 322.61 279.908 322.61C267.446 322.61 257.345 332.712 257.345 345.172C257.345 357.633 267.446 367.734 279.908 367.734Z" fill="#FF4F6D"/>
</g>
<mask id="mask5" mask-type="alpha" maskUnits="userSpaceOnUse" x="0" y="0" width="542" height="575">
<path d="M541.496 0H0V574.314H541.496V0Z" fill="white"/>
</mask>
<g mask="url(#mask5)">
<path fill-rule="evenodd" clip-rule="evenodd" d="M245.04 265.179C245.04 274.24 256.059 281.587 269.653 281.587C283.247 281.587 294.266 274.24 294.266 265.179" fill="black" fill-opacity="0.16"/>
<path fill-rule="evenodd" clip-rule="evenodd" d="M187.936 229.175C191.724 221.384 200.252 215.951 210.165 215.951C220.043 215.951 228.546 221.346 232.354 229.093C233.485 231.394 231.875 233.279 230.252 231.882C225.224 227.561 218.085 224.861 210.165 224.861C202.494 224.861 195.553 227.395 190.556 231.482C188.729 232.976 186.829 231.455 187.936 229.175Z" fill="black" fill-opacity="0.6"/>
<path fill-rule="evenodd" clip-rule="evenodd" d="M306.901 229.175C310.688 221.384 319.216 215.951 329.131 215.951C339.008 215.951 347.512 221.346 351.319 229.093C352.45 231.394 350.84 233.279 349.217 231.882C344.189 227.561 337.049 224.861 329.131 224.861C321.457 224.861 314.519 227.395 309.522 231.482C307.694 232.976 305.794 231.455 306.901 229.175Z" fill="black" fill-opacity="0.6"/>
<path fill-rule="evenodd" clip-rule="evenodd" d="M332.115 179.336C344.026 179.885 363.282 188.541 362.786 200.552C362.77 200.945 362.191 201.117 361.909 200.815C356.258 194.745 316.139 188.612 302.007 191.862C300.713 192.16 299.73 190.884 300.55 189.963C307.569 182.069 321.444 178.832 332.115 179.336Z" fill="black" fill-opacity="0.6"/>
<path fill-rule="evenodd" clip-rule="evenodd" d="M209.242 179.336C197.331 179.885 178.074 188.541 178.571 200.552C178.587 200.945 179.166 201.117 179.448 200.815C185.098 194.745 225.218 188.612 239.35 191.862C240.644 192.16 241.627 190.884 240.807 189.963C233.787 182.069 219.913 178.832 209.242 179.336Z" fill="black" fill-opacity="0.6"/>
<mask id="mask6" mask-type="alpha" maskUnits="userSpaceOnUse" x="147" y="18" width="249" height="188">
<path fill-rule="evenodd" clip-rule="evenodd" d="M191.271 106.704C191.524 106.592 190.897 106.549 189.393 106.575C191.222 106.572 191.847 106.614 191.271 106.704ZM174.585 74.459C174.581 74.4188 174.619 74.769 174.585 74.459V74.459ZM395.385 145.149C394.843 138.346 393.883 131.583 392.27 124.936C390.989 119.653 389.24 114.612 387.17 109.571C385.92 106.526 383.001 102.343 382.658 99.0579C382.32 95.8219 384.845 92.2372 385.384 88.4697C385.907 84.8032 385.819 80.9481 385.065 77.3148C383.357 69.0634 377.695 61.3902 368.951 59.2393C366.998 58.759 362.871 59.3509 361.492 58.214C359.91 56.9104 358.808 52.4691 357.376 50.6877C353.294 45.6092 346.927 42.3387 340.211 43.479C335.266 44.3181 338.106 45.3407 334.399 42.4304C332.337 40.8124 330.798 38.342 328.796 36.5904C325.786 33.9592 322.333 31.7067 318.76 29.8582C309.414 25.0214 298.755 21.5058 288.314 19.7921C269.27 16.6658 248.942 19.3915 230.482 24.3445C221.296 26.8089 212.048 29.9365 203.517 34.0728C199.858 35.8462 197.746 37.3174 193.933 37.7818C187.925 38.5134 182.837 38.4769 177.147 41.0244C159.639 48.8637 151.752 67.0507 158.565 84.4551C159.935 87.9554 161.792 91.0293 164.349 93.8565C167.469 97.3037 168.597 96.6254 165.911 100.589C161.893 106.517 158.506 112.838 155.749 119.402C148.511 136.635 147.299 156.043 147.77 174.423C147.935 180.856 148.211 187.369 149.226 193.741C149.664 196.499 149.787 201.686 151.855 203.732C152.905 204.77 154.401 205.349 155.893 204.935C159.399 203.964 158.193 201.377 158.276 198.974C158.685 186.906 158.132 176.231 161.002 164.308C163.121 155.5 166.655 147.499 171.234 139.623C177.056 129.605 183.341 120.807 191.348 112.228C193.231 110.211 193.642 109.356 196.167 109.21C198.078 109.099 200.875 110.408 202.733 110.861C206.831 111.86 210.936 112.847 215.108 113.52C222.779 114.757 230.375 114.84 238.116 114.597C253.347 114.121 268.645 113.052 283.414 109.216C293.222 106.669 301.919 102.097 311.313 98.7456C311.481 98.6859 313.835 97.008 314.248 97.0765C314.824 97.1715 318.304 100.821 318.89 101.281C323.455 104.861 328.462 106.364 333.393 109.136C339.471 112.554 333.584 107.663 336.937 111.923C337.914 113.164 338.415 115.464 339.198 116.87C341.692 121.347 345.161 125.282 349.312 128.404C353.322 131.421 359.349 132.878 361.393 136.804C362.971 139.833 363.501 143.95 364.775 147.185C368.112 155.666 372.521 163.575 376.929 171.564C380.481 178.002 384.364 183.626 384.76 190.984C384.896 193.544 382.459 208.905 388.395 204.234C389.275 203.541 391.173 195.709 391.562 194.381C393.144 188.98 393.706 183.343 394.423 177.795C395.848 166.761 396.315 156.262 395.385 145.149Z" fill="white"/>
</mask>
<g mask="url(#mask6)">
<path fill-rule="evenodd" clip-rule="evenodd" d="M191.271 106.704C191.524 106.592 190.897 106.549 189.393 106.575C191.222 106.572 191.847 106.614 191.271 106.704ZM174.585 74.459C174.581 74.4188 174.619 74.769 174.585 74.459V74.459ZM395.385 145.149C394.843 138.346 393.883 131.583 392.27 124.936C390.989 119.653 389.24 114.612 387.17 109.571C385.92 106.526 383.001 102.343 382.658 99.0579C382.32 95.8219 384.845 92.2372 385.384 88.4697C385.907 84.8032 385.819 80.9481 385.065 77.3148C383.357 69.0634 377.695 61.3902 368.951 59.2393C366.998 58.759 362.871 59.3509 361.492 58.214C359.91 56.9104 358.808 52.4691 357.376 50.6877C353.294 45.6092 346.927 42.3387 340.211 43.479C335.266 44.3181 338.106 45.3407 334.399 42.4304C332.337 40.8124 330.798 38.342 328.796 36.5904C325.786 33.9592 322.333 31.7067 318.76 29.8582C309.414 25.0214 298.755 21.5058 288.314 19.7921C269.27 16.6658 248.942 19.3915 230.482 24.3445C221.296 26.8089 212.048 29.9365 203.517 34.0728C199.858 35.8462 197.746 37.3174 193.933 37.7818C187.925 38.5134 182.837 38.4769 177.147 41.0244C159.639 48.8637 151.752 67.0507 158.565 84.4551C159.935 87.9554 161.792 91.0293 164.349 93.8565C167.469 97.3037 168.597 96.6254 165.911 100.589C161.893 106.517 158.506 112.838 155.749 119.402C148.511 136.635 147.299 156.043 147.77 174.423C147.935 180.856 148.211 187.369 149.226 193.741C149.664 196.499 149.787 201.686 151.855 203.732C152.905 204.77 154.401 205.349 155.893 204.935C159.399 203.964 158.193 201.377 158.276 198.974C158.685 186.906 158.132 176.231 161.002 164.308C163.121 155.5 166.655 147.499 171.234 139.623C177.056 129.605 183.341 120.807 191.348 112.228C193.231 110.211 193.642 109.356 196.167 109.21C198.078 109.099 200.875 110.408 202.733 110.861C206.831 111.86 210.936 112.847 215.108 113.52C222.779 114.757 230.375 114.84 238.116 114.597C253.347 114.121 268.645 113.052 283.414 109.216C293.222 106.669 301.919 102.097 311.313 98.7456C311.481 98.6859 313.835 97.008 314.248 97.0765C314.824 97.1715 318.304 100.821 318.89 101.281C323.455 104.861 328.462 106.364 333.393 109.136C339.471 112.554 333.584 107.663 336.937 111.923C337.914 113.164 338.415 115.464 339.198 116.87C341.692 121.347 345.161 125.282 349.312 128.404C353.322 131.421 359.349 132.878 361.393 136.804C362.971 139.833 363.501 143.95 364.775 147.185C368.112 155.666 372.521 163.575 376.929 171.564C380.481 178.002 384.364 183.626 384.76 190.984C384.896 193.544 382.459 208.905 388.395 204.234C389.275 203.541 391.173 195.709 391.562 194.381C393.144 188.98 393.706 183.343 394.423 177.795C395.848 166.761 396.315 156.262 395.385 145.149Z" fill="black"/>
<path d="M539.445 -1.52588e-05H-2.05151V574.314H539.445V-1.52588e-05Z" fill="black"/>
</g>
</g>
</g>
</g>
<defs>
<clipPath id="clip0">
<rect width="542" height="574.314" fill="white"/>
</clipPath>
</defs>
</svg>
