<?xml version="1.0" encoding="UTF-8"?>
<svg xmlns="http://www.w3.org/2000/svg" xmlns:xlink="http://www.w3.org/1999/xlink" width="26pt" height="29pt" viewBox="0 0 26 29" version="1.1">
<g id="surface1">
<path style=" stroke:none;fill-rule:nonzero;fill:rgb(0%,0%,0%);fill-opacity:1;" d="M 0.929688 7.476562 L 25.070312 7.476562 C 25.585938 7.476562 26 7.070312 26 6.570312 L 26 4.304688 C 26 3.804688 25.585938 3.398438 25.070312 3.398438 L 0.929688 3.398438 C 0.414062 3.398438 0 3.804688 0 4.304688 L 0 6.570312 C 0 7.070312 0.414062 7.476562 0.929688 7.476562 Z M 0.929688 16.539062 L 25.070312 16.539062 C 25.585938 16.539062 26 16.132812 26 15.632812 L 26 13.367188 C 26 12.867188 25.585938 12.460938 25.070312 12.460938 L 0.929688 12.460938 C 0.414062 12.460938 0 12.867188 0 13.367188 L 0 15.632812 C 0 16.132812 0.414062 16.539062 0.929688 16.539062 Z M 0.929688 25.601562 L 25.070312 25.601562 C 25.585938 25.601562 26 25.195312 26 24.695312 L 26 22.429688 C 26 21.929688 25.585938 21.523438 25.070312 21.523438 L 0.929688 21.523438 C 0.414062 21.523438 0 21.929688 0 22.429688 L 0 24.695312 C 0 25.195312 0.414062 25.601562 0.929688 25.601562 Z M 0.929688 25.601562 "/>
</g>
</svg>
