<svg width="53" height="65" viewBox="0 0 53 65" fill="none" xmlns="http://www.w3.org/2000/svg">
<path d="M30.5023 6.66962C29.5758 4.25602 26.1611 4.25602 25.2346 6.66961L4.67602 60.2292C3.96682 62.0768 5.33079 64.0613 7.30983 64.0613H15.4819C16.5649 64.0613 17.5523 63.4414 18.0229 62.466L25.4079 47.1584C26.3914 45.1198 29.3017 45.1396 30.2575 47.1913L37.3569 62.4315C37.82 63.4257 38.8174 64.0613 39.9142 64.0613H48.4271C50.4061 64.0613 51.7701 62.0768 51.0609 60.2292L30.5023 6.66962Z" fill="#7A87FF" stroke="#4758FC" stroke-width="0.137618" stroke-linecap="round"/>
<path d="M23.2654 14.9637C22.4729 12.8991 19.5518 12.8991 18.7593 14.9637L1.17267 60.7807C0.565998 62.3612 1.73279 64.0589 3.42573 64.0589H10.4165C11.3429 64.0589 12.1875 63.5285 12.5901 62.6942L18.9075 49.5995C19.7489 47.8556 22.2384 47.8724 23.056 49.6276L29.1291 62.6646C29.5253 63.5151 30.3785 64.0589 31.3168 64.0589H38.599C40.292 64.0589 41.4588 62.3612 40.8521 60.7807L23.2654 14.9637Z" fill="#4758FC" stroke="#4758FC" stroke-width="0.117724" stroke-linecap="round"/>
</svg>
