<?xml version="1.0" standalone="no"?>
<!DOCTYPE svg PUBLIC "-//W3C//DTD SVG 20010904//EN"
 "http://www.w3.org/TR/2001/REC-SVG-20010904/DTD/svg10.dtd">
<svg version="1.0" xmlns="http://www.w3.org/2000/svg"
 width="512.000000pt" height="512.000000pt" viewBox="0 0 512.000000 512.000000"
 preserveAspectRatio="xMidYMid meet">
<metadata>
Created by potrace 1.14, written by Peter Selinger 2001-2017
</metadata>
<g transform="translate(0.000000,512.000000) scale(0.100000,-0.100000)"
fill="#000000" stroke="none">
<path d="M2605 5101 c-82 -37 -101 -70 -235 -421 -68 -179 -125 -326 -126
-328 -1 -2 -17 4 -36 14 -75 39 -199 11 -252 -58 -19 -26 -194 -460 -281 -698
-15 -42 -133 -349 -142 -370 -3 -8 -7 -19 -9 -25 -1 -5 -34 -91 -73 -190 -39
-99 -71 -183 -71 -188 0 -4 -9 -26 -19 -50 -10 -23 -137 -350 -281 -727 -144
-377 -277 -723 -295 -770 -18 -47 -65 -170 -105 -275 -40 -104 -78 -203 -85
-220 -7 -16 -57 -145 -111 -285 -81 -211 -97 -264 -97 -307 1 -64 32 -123 86
-167 l39 -31 599 -3 c581 -3 600 -2 638 17 65 34 102 80 161 206 70 146 159
330 275 570 48 99 104 215 124 258 l37 78 33 -73 c19 -40 60 -129 93 -197 32
-68 58 -125 58 -126 0 -1 27 -60 60 -130 34 -70 85 -180 114 -244 108 -236
127 -271 156 -301 61 -63 23 -60 900 -60 786 0 802 0 841 20 84 43 139 132
139 224 0 51 -3 62 -85 271 -36 94 -98 253 -136 355 -39 102 -127 331 -196
510 -69 179 -136 354 -150 390 -13 36 -28 74 -33 85 -9 24 -46 120 -88 230
-77 201 -207 538 -238 617 -19 49 -34 91 -34 94 0 3 -7 20 -15 37 -8 18 -25
61 -38 97 -20 56 -60 159 -214 560 -14 36 -31 79 -39 97 -8 17 -14 34 -14 37
0 3 -20 56 -44 118 -24 62 -65 169 -91 238 -26 69 -53 139 -60 155 -7 17 -45
116 -85 220 -162 427 -243 632 -261 661 -21 34 -67 72 -112 92 -43 18 -155 15
-202 -7z"/>
</g>
</svg>
